<svg xmlns="http://www.w3.org/2000/svg" width="245.671" height="33.088" viewBox="0 0 245.671 33.088">
  <g id="LOGO_POPCHEF" transform="translate(-37.155 -43.517)">
    <path id="Tracé_1" data-name="Tracé 1" d="M50.225,45.306H37.155V77.3h7.038V67.7H49.54c7.175,0,12.934-3.839,12.934-11.242v-.092C62.474,49.831,57.857,45.306,50.225,45.306Zm5.119,11.288c0,2.742-2.057,4.845-5.577,4.845H44.193V51.658h5.439c3.519,0,5.713,1.692,5.713,4.845Z" transform="translate(0 -1.241)" fill="#fff"/>
    <path id="Tracé_2" data-name="Tracé 2" d="M162.666,43.517c-9.872,0-17.047,7.449-17.047,16.544v.091c0,9.094,7.084,16.453,16.955,16.453s17.047-7.45,17.047-16.544v-.092C179.621,50.875,172.537,43.517,162.666,43.517Zm9.6,16.635c0,5.484-3.93,9.963-9.6,9.963s-9.689-4.57-9.689-10.054v-.092c0-5.484,3.931-9.963,9.6-9.963s9.689,4.571,9.689,10.055Z" transform="translate(-75.242)" fill="#fff"/>
    <path id="Tracé_3" data-name="Tracé 3" d="M303.556,45.306H290.485V77.3h7.039V67.7h5.347c7.175,0,12.933-3.839,12.933-11.242v-.092C315.8,49.831,311.188,45.306,303.556,45.306Zm5.118,11.288c0,2.742-2.057,4.845-5.576,4.845h-5.575V51.658h5.438c3.519,0,5.713,1.692,5.713,4.845Z" transform="translate(-175.737 -1.241)" fill="#fff"/>
    <path id="Tracé_4" data-name="Tracé 4" d="M415.587,70.115c-5.484,0-9.277-4.57-9.277-10.054v-.092c0-5.484,3.884-9.963,9.277-9.963,3.2,0,5.712,1.371,8.181,3.611l4.479-5.164c-2.971-2.925-6.581-4.936-12.613-4.936a16.259,16.259,0,0,0-16.682,16.544v.091a16.149,16.149,0,0,0,16.407,16.453,16.353,16.353,0,0,0,13.117-5.714L424,66.368C421.483,68.653,419.243,70.115,415.587,70.115Z" transform="translate(-250.982)" fill="#fff"/>
    <path id="Tracé_5" data-name="Tracé 5" d="M546.352,57.966h-12.2V45.306h-7.038V77.3h7.038V64.455h12.2V77.3h7.038V45.306h-7.038Z" transform="translate(-339.886 -1.241)" fill="#fff"/>
    <path id="Tracé_6" data-name="Tracé 6" d="M655.849,64.318h11.976V58.057H655.849v-6.49h16.362V45.306H648.857V77.3h23.582V71.036h-16.59Z" transform="translate(-424.343 -1.241)" fill="#fff"/>
    <path id="Tracé_7" data-name="Tracé 7" d="M785.826,51.705v-6.4H762.243V77.3h7.038V64.913H781.44v-6.4H769.281v-6.81Z" transform="translate(-502.999 -1.242)" fill="#fff"/>
  </g>
</svg>
